# xmcd
#
# Track frame offsets:
#	150
#	12165
#	22304
#	34793
#	43124
#	52394
#	62471
#	71573
#	81728
#	91127
#	101240
#	112778
#	125120
#	134645
#	146381
#	156851
#	166766
#
# Disc length: 2353 seconds
#
# Revision: 0
# Processed by: cddbd v1.5.1PL0 Copyright (c) Steve Scherf et al.
# Submitted via: dBpowerAMP V4.0
#
DISCID=f5092f11
DTITLE=Johnny Cash - I Walk The Line
DYEAR=1900
DGENRE=Country
TTITLE0=I Walk The Line
TTITLE1=Hey Porter
TTITLE2=Give My Love To Rose
TTITLE3=Guess Things happen That Way
TTITLE4=Luther Played The Boogie
TTITLE5=I Could Never Be Ashamed Of You
TTITLE6=The Blue Train
TTITLE7=The Ways Of A Woman In Love
TTITLE8=Down The Street To 301
TTITLE9=Goodbye, Little Darlin', Goodbye
TTITLE10=Thanks A Lot
TTITLE11=Folsom Prison Blues
TTITLE12=Rock Island Line
TTITLE13=You're The Nearest Thing To Heaven
TTITLE14=I Heard That Lonesome Whistle Blow
TTITLE15=Get Rythm
TTITLE16=There You Go
EXTD=
EXTT0=
EXTT1=
EXTT2=
EXTT3=
EXTT4=
EXTT5=
EXTT6=
EXTT7=
EXTT8=
EXTT9=
EXTT10=
EXTT11=
EXTT12=
EXTT13=
EXTT14=
EXTT15=
EXTT16=
PLAYORDER=
